# xmcd
#
# Track frame offsets:
#	150
#	12050
#	21826
#	32913
#	48895
#	59751
#	73992
#	85180
#	96993
#	125039
#	137808
#	153532
#	169135
#	182247
#	200931
#	217002
#	232335
#	245787
#	256596
#	285672
#
# Disc length: 3978 seconds
#
# Revision: 0
# Processed by: cddbd v1.5.2PL0 Copyright (c) Steve Scherf et al.
# Submitted via: EasyCDDAExtractor 2011.3.0.0
#
DISCID=3b0f8814
DTITLE=Ray Charles - The Very Best Of Ray Charles CD 1
DYEAR=2014
DGENRE=Blues
TTITLE0=Baby, Don't You Cry
TTITLE1=Busted
TTITLE2=Ol' Man Time
TTITLE3=Cry
TTITLE4=A Stranger In Town
TTITLE5=No One
TTITLE6=You Be My Baby
TTITLE7=I Cried For You
TTITLE8=Rainy Night In Georgia
TTITLE9=My Heart Cries For You
TTITLE10=Where Can I Go
TTITLE11=Teardrops From My Eyes
TTITLE12=Worried Mind
TTITLE13=Over The Rainbow
TTITLE14=Your Cheating Heart
TTITLE15=You and I
TTITLE16=At The Club
TTITLE17=The Cincinnati Kid
TTITLE18=What'd I Say
TTITLE19=You've Got Me Crying Again
EXTD=
EXTT0=
EXTT1=
EXTT2=
EXTT3=
EXTT4=
EXTT5=
EXTT6=
EXTT7=
EXTT8=
EXTT9=
EXTT10=
EXTT11=
EXTT12=
EXTT13=
EXTT14=
EXTT15=
EXTT16=
EXTT17=
EXTT18=
EXTT19=
PLAYORDER=
